<svg preserveAspectRatio="none" overflow="visible" style="display: block;" width="12" height="12" viewBox="0 0 12 12" fill="none" xmlns="http://www.w3.org/2000/svg">
<g id="Info (&#228;&#191;&#161;&#230;&#129;&#175;)" clip-path="url(#clip0_0_108)">
<path id="Exclude" d="M6 0.625C7.48415 0.625 8.82851 1.22695 9.80078 2.19922C10.7731 3.1715 11.375 4.51585 11.375 6C11.375 7.48415 10.7731 8.82851 9.80078 9.80078C8.82851 10.7731 7.48415 11.375 6 11.375C4.51585 11.375 3.1715 10.7731 2.19922 9.80078C1.22695 8.82851 0.625 7.48415 0.625 6C0.625 4.51585 1.22695 3.1715 2.19922 2.19922C3.1715 1.22695 4.51585 0.625 6 0.625ZM5.625 4.625C5.41789 4.625 5.25 4.79289 5.25 5C5.25 5.20711 5.41789 5.375 5.625 5.375H5.75V8.125H5.25C5.04289 8.125 4.875 8.29289 4.875 8.5C4.875 8.70711 5.04289 8.875 5.25 8.875H7C7.20711 8.875 7.375 8.70711 7.375 8.5C7.375 8.29289 7.20711 8.125 7 8.125H6.5V5C6.5 4.79289 6.33211 4.625 6.125 4.625H5.625ZM6 2.75C5.65483 2.75 5.375 3.02983 5.375 3.375C5.375 3.72017 5.65483 4 6 4C6.34517 4 6.625 3.72017 6.625 3.375C6.625 3.02983 6.34517 2.75 6 2.75Z" fill="#B0B0B0"/>
</g>
<defs>
<clipPath id="clip0_0_108">
<rect width="12" height="12" fill="white"/>
</clipPath>
</defs>
</svg>
