<svg preserveAspectRatio="none" width="100%" height="100%" overflow="visible" style="display: block;" viewBox="0 0 1180 56" fill="none" xmlns="http://www.w3.org/2000/svg">
<g id="Group 27">
<g id="Rectangle 16">
<path d="M1180 0H1080H590V56L875 55L1080 41.5L1180 0Z" fill="url(#paint0_linear_0_76)"/>
<path d="M1180 0H1080H590V56L875 55L1080 41.5L1180 0Z" fill="url(#paint1_linear_0_76)"/>
</g>
<g id="Rectangle 16_2">
<path d="M0 0H100H590V56L305 55L100 41.5L0 0Z" fill="url(#paint2_linear_0_76)"/>
<path d="M0 0H100H590V56L305 55L100 41.5L0 0Z" fill="url(#paint3_linear_0_76)"/>
</g>
</g>
<defs>
<linearGradient id="paint0_linear_0_76" x1="1059" y1="28" x2="1064.5" y2="56" gradientUnits="userSpaceOnUse">
<stop stop-color="#0346C0"/>
<stop offset="1" stop-color="#057DE9"/>
</linearGradient>
<linearGradient id="paint1_linear_0_76" x1="1059" y1="28" x2="1064.5" y2="56" gradientUnits="userSpaceOnUse">
<stop stop-color="#0346C0"/>
<stop offset="1" stop-color="#057DE9"/>
</linearGradient>
<linearGradient id="paint2_linear_0_76" x1="121" y1="28" x2="115.5" y2="56" gradientUnits="userSpaceOnUse">
<stop stop-color="#0346C0"/>
<stop offset="1" stop-color="#057DE9"/>
</linearGradient>
<linearGradient id="paint3_linear_0_76" x1="121" y1="28" x2="115.5" y2="56" gradientUnits="userSpaceOnUse">
<stop stop-color="#0346C0"/>
<stop offset="1" stop-color="#057DE9"/>
</linearGradient>
</defs>
</svg>
