<svg width="58" height="66" viewBox="0 0 58 66" fill="none" xmlns="http://www.w3.org/2000/svg">
<path d="M28.5788 0.57896L56.6563 16.7895V49.2105L28.5788 65.421L0.501405 49.2105V16.7895L28.5788 0.57896Z" stroke="#0180D6" stroke-dasharray="24 24"/>
<path d="M28.5789 1.41031L55.9364 17.2052V48.7949L28.5789 64.5898L1.22138 48.7949V17.2052L28.5789 1.41031Z" fill="url(#paint0_linear_1_6773)"/>
<path d="M28.5789 3.90425L53.7766 18.4522V47.548L28.5789 62.0959L3.3812 47.548V18.4522L28.5789 3.90425Z" fill="url(#paint1_linear_1_6773)"/>
<path d="M28.7884 22.8685V21.8234C28.7884 21.5463 28.6783 21.2805 28.4823 21.0845C28.2863 20.8885 28.0205 20.7784 27.7434 20.7784C27.4662 20.7784 27.2004 20.8885 27.0044 21.0845C26.8084 21.2805 26.6983 21.5463 26.6983 21.8234V22.8685H25.6549C25.2052 22.8685 24.7916 22.8904 24.4313 22.9687C24.0465 23.0407 23.691 23.2231 23.4082 23.4936C23.1376 23.7765 22.9553 24.1319 22.8833 24.5167C22.8064 24.9198 22.7723 25.33 22.7815 25.7403V31.7456H20.693C20.2387 31.7456 19.8015 31.7691 19.413 31.8553C19.0135 31.9415 18.5999 32.1107 18.2614 32.4491C17.923 32.7875 17.7554 33.2011 17.6661 33.6006C17.5856 34.0219 17.5498 34.4504 17.5595 34.8791V41.1461H17.2979C17.1607 41.1461 17.0248 41.1731 16.898 41.2256C16.7712 41.2781 16.656 41.3551 16.5589 41.4522C16.4619 41.5492 16.3849 41.6644 16.3324 41.7912C16.2799 41.918 16.2529 42.0539 16.2529 42.1911C16.2529 42.3283 16.2799 42.4642 16.3324 42.591C16.3849 42.7178 16.4619 42.833 16.5589 42.93C16.656 43.0271 16.7712 43.104 16.898 43.1566C17.0248 43.2091 17.1607 43.2361 17.2979 43.2361H38.1888C38.466 43.2361 38.7318 43.126 38.9278 42.93C39.1237 42.7341 39.2338 42.4683 39.2338 42.1911C39.2338 41.9139 39.1237 41.6481 38.9278 41.4522C38.7318 41.2562 38.466 41.1461 38.1888 41.1461H37.9272V34.8791C37.9272 34.4248 37.9052 33.9892 37.8191 33.6006C37.7364 33.1672 37.5296 32.7671 37.2237 32.4491C36.9061 32.1435 36.5066 31.9367 36.0737 31.8537C35.6521 31.7726 35.223 31.7364 34.7937 31.7456H32.7052V25.7403C32.7052 25.2906 32.6817 24.8786 32.6034 24.5167C32.5314 24.1319 32.3491 23.7765 32.0785 23.4936C31.7957 23.2231 31.4402 23.0407 31.0555 22.9687C30.6528 22.8924 30.2431 22.8588 29.8334 22.8685H28.7884ZM32.7052 33.8357H34.7937C35.2026 33.8357 35.4596 33.8576 35.6241 33.8936C35.6867 33.9077 35.7243 33.9203 35.7447 33.9297C35.7597 33.9683 35.7712 34.0081 35.7792 34.0487C35.8152 34.2132 35.8387 34.4702 35.8387 34.8791V41.1461H32.7052V33.8357ZM30.0935 41.1461H28.7884V39.0576C28.7884 38.7805 28.6783 38.5147 28.4823 38.3187C28.2863 38.1227 28.0205 38.0126 27.7434 38.0126C27.4662 38.0126 27.2004 38.1227 27.0044 38.3187C26.8084 38.5147 26.6983 38.7805 26.6983 39.0576V41.1461H25.3932V39.0576C25.3932 38.4343 25.6408 37.8366 26.0816 37.3958C26.5223 36.9551 27.1201 36.7075 27.7434 36.7075C28.3666 36.7075 28.9644 36.9551 29.4051 37.3958C29.8459 37.8366 30.0935 38.4343 30.0935 39.0576V41.1461ZM22.7815 41.1461H19.648V34.8791C19.648 34.4702 19.6715 34.2132 19.7075 34.0487C19.7155 34.0081 19.727 33.9683 19.742 33.9297C19.7806 33.9142 19.8204 33.9021 19.8611 33.8936C20.0272 33.8576 20.2841 33.8357 20.693 33.8357H22.7815V41.1461ZM25.915 26.0255C25.915 25.8177 25.9975 25.6184 26.1444 25.4715C26.2913 25.3246 26.4906 25.2421 26.6983 25.2421H28.7884C28.9961 25.2421 29.1954 25.3246 29.3423 25.4715C29.4892 25.6184 29.5717 25.8177 29.5717 26.0255C29.5717 26.2332 29.4892 26.4325 29.3423 26.5794C29.1954 26.7263 28.9961 26.8088 28.7884 26.8088H26.6983C26.4906 26.8088 26.2913 26.7263 26.1444 26.5794C25.9975 26.4325 25.915 26.2332 25.915 26.0255ZM25.915 29.6807C25.915 29.4729 25.9975 29.2736 26.1444 29.1267C26.2913 28.9798 26.4906 28.8973 26.6983 28.8973H28.7884C28.9961 28.8973 29.1954 28.9798 29.3423 29.1267C29.4892 29.2736 29.5717 29.4729 29.5717 29.6807C29.5717 29.8884 29.4892 30.0877 29.3423 30.2346C29.1954 30.3815 28.9961 30.464 28.7884 30.464H26.6983C26.4906 30.464 26.2913 30.3815 26.1444 30.2346C25.9975 30.0877 25.915 29.8884 25.915 29.6807ZM25.915 33.3359C25.915 33.1281 25.9975 32.9289 26.1444 32.7819C26.2913 32.635 26.4906 32.5525 26.6983 32.5525H28.7884C28.9961 32.5525 29.1954 32.635 29.3423 32.7819C29.4892 32.9289 29.5717 33.1281 29.5717 33.3359C29.5717 33.5436 29.4892 33.7429 29.3423 33.8898C29.1954 34.0367 28.9961 34.1192 28.7884 34.1192H26.6983C26.4906 34.1192 26.2913 34.0367 26.1444 33.8898C25.9975 33.7429 25.915 33.5436 25.915 33.3359Z" fill="url(#paint2_linear_1_6773)"/>
<defs>
<linearGradient id="paint0_linear_1_6773" x1="28.5789" y1="1.41031" x2="41.8025" y2="55.4067" gradientUnits="userSpaceOnUse">
<stop stop-color="#2E82BD"/>
<stop offset="1" stop-color="#A3D5F1"/>
</linearGradient>
<linearGradient id="paint1_linear_1_6773" x1="28.5789" y1="8.9791" x2="40.7585" y2="54.6527" gradientUnits="userSpaceOnUse">
<stop stop-color="#0454D0"/>
<stop offset="1" stop-color="#0051A2"/>
</linearGradient>
<linearGradient id="paint2_linear_1_6773" x1="27.7434" y1="20.7784" x2="27.7434" y2="43.2361" gradientUnits="userSpaceOnUse">
<stop stop-color="#D1EDFB"/>
<stop offset="1" stop-color="#84D6FF"/>
</linearGradient>
</defs>
</svg>
